# xmcd
#
# Track frame offsets:
#	150
#	11830
#	21993
#	32098
#	44299
#	56093
#	69341
#	81537
#	91381
#	103329
#	111810
#	125677
#	138801
#	150806
#	163579
#	175764
#
# Disc length: 2499 seconds
#
# Revision: 0
# Processed by: cddbd v1.5.1PL0 Copyright (c) Steve Scherf et al.
# Submitted via: audiograbber 1.83.01
#
DISCID=d109c110
DTITLE=Verschiedene - The Country Club Collection Country Lady
DYEAR=2005
DGENRE=Country
TTITLE0=Lynn Anderson - You're my Man
TTITLE1=Dolly Parton - Release Me
TTITLE2=Patsy Cline - Three Cigarettes in the Ashtray
TTITLE3=Billie Jo Spears - What I've Got in Mind
TTITLE4=Skeeter Davis - The End of the World
TTITLE5=Janie Fricke - He's a Heartache
TTITLE6=Sammi Smith - Send me the Pillow that you Dream on
TTITLE7=Kitty Wells - I can't Stop Loving you
TTITLE8=Wanda Jackson - Right or Wrong
TTITLE9=Sandy Posey - Born a Woman
TTITLE10=Barbara Fairchild - Teddy Bear Song
TTITLE11=Donna Fargo - Daddy
TTITLE12=Connie Francis - Among my Souvernirs
TTITLE13=Dottie West - I Fall to Pieces
TTITLE14=Jeannie Pruett - Satin Sheets
TTITLE15=Wilma Burgess - Misty Blue
EXTD=
EXTT0=
EXTT1=
EXTT2=
EXTT3=
EXTT4=
EXTT5=
EXTT6=
EXTT7=
EXTT8=
EXTT9=
EXTT10=
EXTT11=
EXTT12=
EXTT13=
EXTT14=
EXTT15=
PLAYORDER=
